# xmcd
# Copyright (C) 1995-1998 Ti Kan
#
# Track frame offsets:
#       150
#       23099
#       44059
#       62513
#       79647
#       107642
#       127748
#       150070
#       174700
#       192707
#       216764
#       235222
#       261707
#       278188
#
# Disc length: 3949 seconds
#
# Revision: 1
# Processed by: cddbd v1.5.2PL0 Copyright (c) Steve Scherf et al.
# Submitted via: CD-Import v1.0
#
DISCID=c10f6b0e
DTITLE=Protassov - Meets Kabanjak
DYEAR=09
DGENRE=
TTITLE0=Blues Encore
TTITLE1=Cruise Control
TTITLE2=Too Slick To Grind
TTITLE3=Let's Make Friends
TTITLE4=Chase The Morb
TTITLE5=More Days Please
TTITLE6=These Streets We Walk
TTITLE7=Walking' Round The Block
TTITLE8=Clap Your Hands
TTITLE9=Cucumber Lounge
TTITLE10=To The Bone
TTITLE11=Sad Day
TTITLE12=Brain In Dub
TTITLE13=Flirtline
EXTD=
EXTT0=
EXTT1=
EXTT2=
EXTT3=
EXTT4=
EXTT5=
EXTT6=
EXTT7=
EXTT8=
EXTT9=
EXTT10=
EXTT11=
EXTT12=
EXTT13=
PLAYORDER=
